<svg width="100.879" height="79.688" viewBox="0 0 100.879 79.688" xmlns="http://www.w3.org/2000/svg"><g id="svgGroup" stroke-linecap="round" fill-rule="evenodd" font-size="9pt" stroke="#333333" stroke-width="0.25mm" fill="#333333" style="stroke:#333333;stroke-width:0.25mm;fill:#333333"><path d="M 34.473 79.688 L 0 79.688 L 38.77 5.664 A 9.3 9.3 0 0 1 42.947 1.557 A 14.478 14.478 0 0 1 46.143 0.391 A 11.531 11.531 0 0 1 47.417 0.153 Q 48.566 0 50 0 A 9.524 9.524 0 0 1 52.321 0.304 Q 53.346 0.561 54.442 1.037 A 17.373 17.373 0 0 1 55.005 1.294 A 9.498 9.498 0 0 1 59.128 5.113 A 11.593 11.593 0 0 1 59.277 5.371 L 100.879 79.688 L 61.279 79.688 L 58.203 71.973 L 37.109 71.973 L 34.473 79.688 Z M 47.803 35.4 L 39.502 56.494 L 55.273 56.494 L 47.803 35.4 Z" vector-effect="non-scaling-stroke"/></g></svg>