<?xml version="1.0" standalone="no"?>
<!DOCTYPE svg PUBLIC "-//W3C//DTD SVG 20010904//EN"
 "http://www.w3.org/TR/2001/REC-SVG-20010904/DTD/svg10.dtd">
<svg version="1.0" xmlns="http://www.w3.org/2000/svg"
 width="640.000000pt" height="640.000000pt" viewBox="0 0 640.000000 640.000000"
 preserveAspectRatio="xMidYMid meet">
<metadata>
Created by potrace 1.14, written by Peter Selinger 2001-2017
</metadata>
<g transform="translate(0.000000,640.000000) scale(0.100000,-0.100000)"
fill="#000000" stroke="none">
<path d="M809 6396 c-2 -2 -26 -7 -54 -10 -105 -11 -254 -69 -359 -140 -71
-47 -190 -163 -233 -226 -49 -72 -101 -183 -130 -277 l-28 -88 0 -2450 0
-2450 24 -85 c13 -47 27 -89 31 -95 4 -5 15 -30 24 -54 47 -120 192 -289 321
-373 104 -68 236 -119 350 -136 28 -4 1135 -7 2460 -7 2307 0 2413 1 2489 18
320 76 560 305 663 634 l28 88 0 2430 c0 1337 -3 2450 -7 2475 -26 171 -122
355 -251 484 -120 119 -243 190 -416 239 l-76 22 -2416 3 c-1328 1 -2417 0
-2420 -2z"/>
</g>
</svg>
